<?xml version="1.0" encoding="UTF-8"?>
<!DOCTYPE svg PUBLIC "-//W3C//DTD SVG 1.1//EN" "http://www.w3.org/Graphics/SVG/1.1/DTD/svg11.dtd">
<!-- Creator: CorelDRAW Home & Student X8 -->
<svg xmlns="http://www.w3.org/2000/svg" xml:space="preserve" width="210mm" height="297mm" version="1.1" style="shape-rendering:geometricPrecision; text-rendering:geometricPrecision; image-rendering:optimizeQuality; fill-rule:evenodd; clip-rule:evenodd"
viewBox="0 0 21000 29700"
 xmlns:xlink="http://www.w3.org/1999/xlink">
 <defs>
  <style type="text/css">
   <![CDATA[
    .str0 {stroke:#373435;stroke-width:20}
    .fil0 {fill:none}
   ]]>
  </style>
 </defs>
 <g id="Plan_x0020_1">
  <metadata id="CorelCorpID_0Corel-Layer"/>
  <polygon class="fil0 str0" points="4228,9588 4413,9341 4704,9438 5065,9844 4722,9950 4386,9747 4184,9729 "/>
  <polygon class="fil0 str0" points="5145,9218 5242,8944 5542,9050 5621,9368 "/>
  <polygon class="fil0 str0" points="6186,8592 5859,8803 6089,9130 6097,9403 6556,9403 6653,9209 6653,8900 6318,8592 "/>
  <polygon class="fil0 str0" points="5965,10311 5930,9870 6494,9747 6600,10064 6865,10294 6600,10470 6318,10400 6089,10488 "/>
  <polygon class="fil0 str0" points="4924,10867 5101,10708 5277,10973 "/>
  <polygon class="fil0 str0" points="5912,11414 5842,11088 6265,10876 6335,11140 6141,11414 "/>
  <polygon class="fil0 str0" points="4184,11193 4554,11317 4713,11123 4466,10858 "/>
  <polygon class="fil0 str0" points="5484,10499 5167,10358 4990,10428 5061,10093 5396,9952 5608,10252 "/>
  <polygon class="fil0 str0" points="7270,11017 7165,10735 7482,10435 7888,10717 7870,11052 7764,11229 7323,11282 "/>
  <polygon class="fil0 str0" points="11592,11088 11327,11414 10957,11264 11080,10841 11592,10841 "/>
  <polygon class="fil0 str0" points="10692,10347 10534,10117 10851,9941 10957,10364 "/>
  <polygon class="fil0 str0" points="9140,10999 8928,11140 8717,10893 8505,10682 8858,10435 9122,10664 9458,10699 9458,10999 "/>
  <polygon class="fil0 str0" points="7852,10258 8399,10223 8734,10100 8734,9782 8311,9941 7888,10003 "/>
  <polygon class="fil0 str0" points="7147,9818 6970,9500 7288,9165 7694,9447 7958,9623 7570,9923 7288,10082 "/>
  <polygon class="fil0 str0" points="10710,8592 11133,9059 11257,9394 10692,9588 10498,9306 10692,9041 "/>
  <polygon class="fil0 str0" points="9140,8592 9546,8592 9581,8988 9705,9412 9158,9535 9211,9218 9017,8988 "/>
  <polygon class="fil0 str0" points="7791,8936 8073,9465 8487,9562 8584,9341 8435,8962 "/>
  <polygon class="fil0 str0" points="10040,11414 9793,11229 9934,10885 10384,10893 10551,11167 10190,11352 "/>
  <polygon class="fil0 str0" points="9354,10212 9522,10098 9425,9930 9593,9798 9892,9789 9998,10168 10051,10494 9698,10442 9381,10353 "/>
  <polygon class="fil0 str0" points="11592,9756 11230,9685 11248,9994 11468,10012 "/>
 </g>
</svg>
